Coordinates
version=1
nRows=8
nColumns=63
inDegrees=yes

Units are S.I. units (second, meters, Newtons, ...)
If the header above contains a line with 'inDegrees', this indicates whether rotational values are in degrees (yes) or radians (no).

endheader
time	pelvis_tilt	pelvis_list	pelvis_rotation	pelvis_tx	pelvis_ty	pelvis_tz	hip_flexion_r	hip_adduction_r	hip_rotation_r	knee_angle_r	knee_angle_r_beta	ankle_angle_r	subtalar_angle_r	mtp_angle_r	hip_flexion_l	hip_adduction_l	hip_rotation_l	knee_angle_l	knee_angle_l_beta	ankle_angle_l	subtalar_angle_l	mtp_angle_l	L5_S1_Flex_Ext	L5_S1_Lat_Bending	L5_S1_axial_rotation	L4_L5_Flex_Ext	L4_L5_Lat_Bending	L4_L5_axial_rotation	L3_L4_Flex_Ext	L3_L4_Lat_Bending	L3_L4_axial_rotation	L2_L3_Flex_Ext	L2_L3_Lat_Bending	L2_L3_axial_rotation	L1_L2_Flex_Ext	L1_L2_Lat_Bending	L1_L2_axial_rotation	L1_T12_Flex_Ext	L1_T12_Lat_Bending	L1_T12_axial_rotation	Abs_r3	Abs_r2	Abs_r1	Abs_t1	Abs_t2	neck_flexion	neck_bending	neck_rotation	arm_flex_r	arm_add_r	arm_rot_r	elbow_flex_r	pro_sup_r	wrist_flex_r	wrist_dev_r	arm_flex_l	arm_add_l	arm_rot_l	elbow_flex_l	pro_sup_l	wrist_flex_l	wrist_dev_l
3.016667	3.766619	-1.927798	85.747096	0.129991	0.711354	0.776601	4.270748	-0.083437	-0.227433	8.450513	0.147489	28.541390	11.997338	0.000000	4.326104	-2.685268	-13.594134	9.462448	0.165151	30.292188	11.702953	0.000000	-0.213278	0.686399	2.000092	-0.396078	0.912911	2.125098	-0.350394	1.668911	2.125098	-0.243755	1.668911	1.750080	-0.198050	1.399706	1.625075	-0.121867	1.063233	1.500069	-1.523421	7.764687	11.123911	0.000000	0.000000	20.557944	-3.705736	5.196911	2.062779	-16.883664	42.285810	23.040033	61.000660	-10.014591	-3.084232	21.601985	-6.163367	13.834254	149.198331	86.590225	39.084603	-14.643731
3.033333	3.696680	-1.950020	85.729682	0.130514	0.711240	0.776371	4.273274	-0.108461	0.056317	8.337701	0.145520	28.577475	11.734925	0.000000	4.308596	-2.649446	-13.650311	9.251634	0.161471	30.512059	11.945312	0.000000	-0.211202	0.667798	1.963376	-0.392223	0.888172	2.086087	-0.346983	1.623685	2.086087	-0.241383	1.623685	1.717954	-0.196122	1.361775	1.595243	-0.120681	1.034420	1.472532	-1.508593	7.554270	10.919708	0.000000	0.000000	20.632677	-3.418091	5.303021	2.082432	-16.715865	42.138087	23.072240	61.284113	-9.961454	-2.991146	20.987036	-6.990272	14.917417	148.763419	87.018489	36.976836	-14.203004
3.050000	3.647077	-1.961833	85.724501	0.130986	0.711158	0.776107	4.251921	-0.113055	0.335970	8.206016	0.143222	28.595738	11.467489	0.000000	4.277435	-2.633265	-13.743073	9.070491	0.158310	30.703831	12.176885	0.000000	-0.210319	0.652545	1.933728	-0.390583	0.867884	2.054586	-0.345532	1.586597	2.054586	-0.240373	1.586597	1.692012	-0.195302	1.330669	1.571154	-0.120176	1.010792	1.450296	-1.502284	7.381716	10.754817	0.000000	0.000000	20.708366	-3.218359	5.292313	2.111213	-16.561013	42.057507	23.063901	61.385331	-9.882023	-2.923275	20.233742	-7.913447	16.036952	148.244886	86.857222	34.920988	-13.051779
3.066667	3.614003	-1.972526	85.734736	0.131396	0.711077	0.775853	4.225004	-0.102987	0.591945	8.074694	0.140930	28.612101	11.206979	0.000000	4.255628	-2.635769	-13.882926	8.952573	0.156252	30.870792	12.402214	0.000000	-0.208431	0.641299	1.906971	-0.387077	0.852928	2.026157	-0.342432	1.559255	2.026157	-0.238216	1.559255	1.668600	-0.193549	1.307737	1.549414	-0.119098	0.993372	1.430229	-1.488803	7.254504	10.606003	0.000000	0.000000	20.754022	-2.975384	5.393511	2.166580	-16.431719	42.152133	23.007222	61.265722	-9.802503	-2.884417	19.287309	-8.915302	17.104943	147.631550	85.911615	32.937962	-11.100333
3.083333	3.593001	-1.956446	85.719233	0.131768	0.711034	0.775611	4.170594	-0.086335	0.849350	7.950929	0.138770	28.625656	10.973767	0.000000	4.198413	-2.644128	-14.067101	8.872768	0.154859	31.001886	12.595009	0.000000	-0.208397	0.632990	1.898526	-0.387015	0.841877	2.017184	-0.342376	1.539052	2.017184	-0.238177	1.539052	1.661211	-0.193518	1.290793	1.542553	-0.119078	0.980501	1.423895	-1.488562	7.160509	10.559035	0.000000	0.000000	20.749478	-2.822972	5.364156	2.208367	-16.324869	42.316359	22.910803	61.016711	-9.718883	-2.860107	18.175223	-9.971967	18.127169	146.917315	84.596956	30.988147	-8.660038
3.100000	3.583992	-1.906747	85.669563	0.132118	0.711044	0.775470	4.098358	-0.066808	1.051007	7.863288	0.137240	28.647709	10.824994	0.000000	4.116745	-2.664148	-14.311388	8.858984	0.154618	31.106228	12.795494	0.000000	-0.212192	0.627518	1.915248	-0.394061	0.834600	2.034951	-0.348610	1.525748	2.034951	-0.242514	1.525748	1.675842	-0.197041	1.279636	1.556139	-0.121246	0.972026	1.436436	-1.515665	7.098614	10.652035	0.000000	0.000000	20.690653	-2.676570	5.302547	2.254920	-16.265719	42.715376	22.753742	60.511599	-9.672407	-2.909760	16.914659	-11.084305	19.081256	146.057148	84.311780	28.934524	-7.032174
3.116667	3.589631	-1.816669	85.606293	0.132399	0.711111	0.775422	3.991330	-0.042220	1.231013	7.796959	0.136083	28.665290	10.697500	0.000000	4.002698	-2.692027	-14.566230	8.894543	0.155239	31.197185	12.988584	0.000000	-0.220295	0.625090	1.955255	-0.409111	0.831369	2.077458	-0.361923	1.519843	2.077458	-0.251776	1.519843	1.710848	-0.204566	1.274683	1.588645	-0.125877	0.968264	1.466441	-1.573548	7.071140	10.874541	0.000000	0.000000	20.579457	-2.616442	5.093762	2.234460	-16.234438	42.960720	22.607219	60.189384	-9.633995	-2.926921	15.553746	-12.187405	19.957455	145.128683	83.876412	27.118710	-5.223394
3.133333	3.596434	-1.691631	85.538717	0.132620	0.711221	0.775511	3.863293	-0.024701	1.389027	7.763526	0.135499	28.699922	10.561407	0.000000	3.871854	-2.715759	-14.809519	8.979567	0.156723	31.267528	13.166294	0.000000	-0.233549	0.622688	2.019658	-0.433723	0.828176	2.145886	-0.383697	1.514004	2.145886	-0.266923	1.514004	1.767201	-0.216873	1.269786	1.640972	-0.133450	0.964544	1.514743	-1.668214	7.043975	11.232731	0.000000	0.000000	20.449674	-2.625199	4.655975	2.130473	-16.216412	42.975618	22.491223	60.112484	-9.620960	-2.925595	14.164905	-13.234848	20.732598	144.223057	82.782685	25.480087	-2.852714
